<svg width="56" height="11" viewBox="0 0 56 11" fill="none" xmlns="http://www.w3.org/2000/svg">
<g clip-path="url(#clip0_23_2651)">
<mask id="mask0_23_2651" style="mask-type:luminance" maskUnits="userSpaceOnUse" x="0" y="0" width="56" height="11">
<path d="M0.118164 0.680965H55.8942V10.1448H0.118164V0.680965Z" fill="white"/>
</mask>
<g mask="url(#mask0_23_2651)">
<mask id="mask1_23_2651" style="mask-type:luminance" maskUnits="userSpaceOnUse" x="0" y="0" width="56" height="11">
<path d="M0.118164 10.1448H55.8943V0.680966H0.118164V10.1448Z" fill="white"/>
</mask>
<g mask="url(#mask1_23_2651)">
<path d="M21.9907 1.71694C21.9907 1.24717 22.3699 0.867212 22.8366 0.867212C23.305 0.867212 23.6856 1.24717 23.6856 1.71694C23.6856 2.1861 23.305 2.56647 22.8366 2.56647C22.3699 2.56647 21.9907 2.1861 21.9907 1.71694Z" fill="#273B7D"/>
<path d="M35.3633 7.36879C35.3633 6.89883 35.7422 6.51846 36.209 6.51846C36.6772 6.51846 37.0577 6.89883 37.0577 7.36879C37.0577 7.83755 36.6772 8.21832 36.209 8.21832C35.7422 8.21832 35.3633 7.83755 35.3633 7.36879Z" fill="#499FDD"/>
<path d="M8.08098 7.00155C7.35106 7.00155 6.8438 6.42184 6.8438 5.59345C6.8438 4.76527 7.35106 4.18596 8.08098 4.18596C8.8151 4.18596 9.32793 4.76527 9.32793 5.59345C9.32793 6.43492 8.82578 7.00155 8.08098 7.00155ZM8.08098 2.94842C6.53673 2.94842 5.41602 4.06112 5.41602 5.59345C5.41602 7.12578 6.53673 8.23828 8.08098 8.23828C9.63102 8.23828 10.7564 7.12578 10.7564 5.59345C10.7564 4.06112 9.63102 2.94842 8.08098 2.94842Z" fill="#273B7D"/>
<path d="M20.3491 5.72572C20.2891 5.61276 20.2203 5.51711 20.147 5.44121L20.1003 5.39167L20.1494 5.34455C20.2203 5.26985 20.2928 5.18125 20.3627 5.07856L21.7254 3.0527H20.0711L19.0472 4.63738C18.9892 4.72236 18.8722 4.76525 18.697 4.76525H18.4636V1.76925C18.4636 1.17001 18.0903 1.08846 17.687 1.08846H16.9966L16.9977 8.16034H18.4636V6.03904H18.601C18.7681 6.03904 18.8819 6.05836 18.934 6.14918L19.7427 7.67547C19.9686 8.08966 20.1937 8.16034 20.6172 8.16034H21.7405L20.9039 6.7764L20.3491 5.72572Z" fill="#273B7D"/>
<path d="M27.4654 2.93716C26.7198 2.93716 26.244 3.26839 25.9774 3.54848L25.8884 3.63849L25.857 3.51607C25.7787 3.21604 25.5147 3.05093 25.1174 3.05093H24.4604L24.4646 8.15857H25.9205V5.80449C25.9205 5.57434 25.9504 5.3746 26.0113 5.19237C26.1733 4.64085 26.6254 4.29794 27.1904 4.29794C27.6449 4.29794 27.8225 4.53775 27.8225 5.15753V7.38213C27.8225 7.9111 28.0671 8.15857 28.5965 8.15857H29.2893L29.287 4.91007C29.287 3.61936 28.6571 2.93716 27.4654 2.93716Z" fill="#273B7D"/>
<path d="M22.8561 3.05314H22.166L22.1707 7.00236L22.1703 8.15976H22.9069C22.9161 8.15976 22.9236 8.16077 22.9328 8.16077L23.2759 8.15976H23.6174V8.15776H23.6198L23.6228 3.82857C23.6228 3.30625 23.3725 3.05314 22.8561 3.05314Z" fill="#273B7D"/>
<path d="M13.7995 7.00155C13.0697 7.00155 12.5614 6.42184 12.5614 5.59345C12.5614 4.76527 13.0697 4.18596 13.7995 4.18596C14.5321 4.18596 15.0464 4.76527 15.0464 5.59345C15.0464 6.43492 14.5444 7.00155 13.7995 7.00155ZM13.7995 2.94842C12.2538 2.94842 11.1328 4.06112 11.1328 5.59345C11.1328 7.12578 12.2538 8.23828 13.7995 8.23828C15.348 8.23828 16.4752 7.12578 16.4752 5.59345C16.4752 4.06112 15.348 2.94842 13.7995 2.94842Z" fill="#273B7D"/>
</g>
</g>
<mask id="mask2_23_2651" style="mask-type:luminance" maskUnits="userSpaceOnUse" x="0" y="0" width="56" height="11">
<path d="M0.118164 0.680965H55.8942V10.1448H0.118164V0.680965Z" fill="white"/>
</mask>
<g mask="url(#mask2_23_2651)">
<mask id="mask3_23_2651" style="mask-type:luminance" maskUnits="userSpaceOnUse" x="0" y="0" width="56" height="11">
<path d="M0.118164 0.867218H55.8824V10.1327H0.118164V0.867218Z" fill="white"/>
</mask>
<g mask="url(#mask3_23_2651)">
<mask id="mask4_23_2651" style="mask-type:luminance" maskUnits="userSpaceOnUse" x="0" y="0" width="56" height="11">
<path d="M0.118164 10.1448H55.8943V0.680966H0.118164V10.1448Z" fill="white"/>
</mask>
<g mask="url(#mask4_23_2651)">
<path d="M45.0077 7.00161C44.2781 7.00161 43.7695 6.4219 43.7695 5.59351C43.7695 4.76533 44.2781 4.18602 45.0077 4.18602C45.7404 4.18602 46.2549 4.76533 46.2549 5.59351C46.2549 6.43498 45.7527 7.00161 45.0077 7.00161ZM45.0077 2.94848C43.4623 2.94848 42.3413 4.06118 42.3413 5.59351C42.3413 7.12584 43.4623 8.23834 45.0077 8.23834C46.5563 8.23834 47.6833 7.12584 47.6833 5.59351C47.6833 4.06118 46.5563 2.94848 45.0077 2.94848Z" fill="#499FDD"/>
<path d="M32.3573 6.77688C31.5613 6.77688 31.278 6.0824 31.278 5.43161C31.278 5.14488 31.3505 4.21038 32.2808 4.21038C32.7431 4.21038 33.3593 4.34287 33.3593 5.47974C33.3593 6.55197 32.814 6.77688 32.3573 6.77688ZM34.1152 3.03949C33.8389 3.03949 33.6263 3.14963 33.5197 3.35079L33.4795 3.42891L33.412 3.37032C33.177 3.16694 32.7557 2.92572 32.0714 2.92572C30.71 2.92572 29.7935 3.94821 29.7935 5.46987C29.7935 6.98972 30.7418 8.05188 32.0988 8.05188C32.5623 8.05188 32.9286 7.94375 33.2189 7.72387L33.3313 7.6395V7.78146C33.3313 8.46366 32.8901 8.84 32.0904 8.84C31.7017 8.84 31.3479 8.74536 31.1114 8.65958C30.8024 8.56635 30.6214 8.64347 30.4962 8.95336L30.3806 9.23929L30.2171 9.6569L30.3184 9.71087C30.8302 9.9825 31.4965 10.1446 32.0988 10.1446C33.3387 10.1446 34.7865 9.50992 34.7865 7.72387L34.7918 3.03949H34.1152Z" fill="#273B7D"/>
</g>
</g>
</g>
<mask id="mask5_23_2651" style="mask-type:luminance" maskUnits="userSpaceOnUse" x="0" y="0" width="56" height="11">
<path d="M0.118164 0.680965H55.8942V10.1448H0.118164V0.680965Z" fill="white"/>
</mask>
<g mask="url(#mask5_23_2651)">
<mask id="mask6_23_2651" style="mask-type:luminance" maskUnits="userSpaceOnUse" x="0" y="0" width="56" height="11">
<path d="M0.118164 10.1448H55.8943V0.680966H0.118164V10.1448Z" fill="white"/>
</mask>
<g mask="url(#mask6_23_2651)">
<path d="M2.65906 6.94297L1.4739 6.94179V5.52484C1.4739 5.222 1.5913 5.06454 1.85082 5.0283H2.65906C3.23595 5.0283 3.60868 5.39215 3.6091 5.98071C3.60868 6.58479 3.24521 6.94257 2.65906 6.94297ZM1.4739 3.1206V2.74768C1.4739 2.42129 1.61201 2.26604 1.91509 2.2461H2.52152C3.04163 2.2461 3.35314 2.5574 3.35314 3.07811C3.35314 3.47519 3.1399 3.93852 2.54065 3.93852H1.4739V3.1206ZM4.1727 4.53473L3.95842 4.41432L4.14546 4.25444C4.36296 4.06738 4.72761 3.64695 4.72761 2.92045C4.72761 1.80895 3.86543 1.09152 2.531 1.09152H1.00814L0.834759 1.09111C0.439133 1.10562 0.122591 1.42738 0.118164 1.82547V8.13461H0.817035C0.818806 8.13501 0.819399 8.13461 0.819989 8.13501L2.56108 8.13461C4.04448 8.13461 5.00194 7.32716 5.00194 6.07653C5.00194 5.40319 4.6928 4.82751 4.1727 4.53473Z" fill="#273B7D"/>
<path d="M54.1869 2.95369C53.5828 2.95369 52.9988 3.2366 52.6239 3.71099L52.5184 3.8447L52.4357 3.69509C52.1661 3.20337 51.7019 2.95369 51.0566 2.95369C50.3798 2.95369 49.9259 3.33123 49.7151 3.55575L49.5772 3.70516L49.5241 3.50863C49.4471 3.22572 49.1952 3.06987 48.8137 3.06987H48.2017L48.1958 8.15778H49.5862V5.91183C49.5862 5.71511 49.6106 5.52039 49.6599 5.31682C49.7928 4.77416 50.1575 4.19043 50.7706 4.24882C51.1488 4.28507 51.3334 4.57724 51.3334 5.14164V8.15778H52.7336V5.91183C52.7336 5.66598 52.7566 5.48193 52.812 5.29729C52.9247 4.7792 53.3055 4.24802 53.897 4.24802C54.3251 4.24802 54.4834 4.49045 54.4834 5.14164V7.41396C54.4834 7.92803 54.7127 8.15778 55.2264 8.15778H55.8809L55.882 4.90968C55.882 3.61213 55.3111 2.95369 54.1869 2.95369Z" fill="#499FDD"/>
<path d="M41.5361 6.39124C41.532 6.39626 40.9337 7.02713 40.146 7.02713C39.4283 7.02713 38.7032 6.58676 38.7032 5.60373C38.7032 4.75501 39.2654 4.16181 40.0701 4.16181C40.3314 4.16181 40.6286 4.25544 40.6751 4.4129L40.682 4.43948C40.7891 4.79649 41.1135 4.81562 41.1773 4.81562L41.9391 4.81644V4.15056C41.9391 3.27224 40.8219 2.95369 40.0701 2.95369C38.4624 2.95369 37.2959 4.07303 37.2959 5.61443C37.2959 7.15522 38.4497 8.27295 40.0407 8.27295C41.421 8.27295 42.1716 7.36564 42.1786 7.35657L42.2187 7.30744L41.6155 6.3067L41.5361 6.39124Z" fill="#499FDD"/>
</g>
</g>
</g>
<defs>
<clipPath id="clip0_23_2651">
<rect width="56" height="9.50156" fill="white" transform="translate(0 0.749207)"/>
</clipPath>
</defs>
</svg>
