<svg width="24" height="25" viewBox="0 0 24 25" fill="none" xmlns="http://www.w3.org/2000/svg">
<path d="M17.4776 9.03751C17.485 9.03747 17.4925 9.03746 17.5 9.03746C19.9853 9.03746 22 11.0567 22 13.5476C22 15.8691 20.25 17.7809 18 18.0302M17.4776 9.03751C17.4924 8.87244 17.5 8.70527 17.5 8.53633C17.5 5.49191 15.0376 3.02393 12 3.02393C9.12324 3.02393 6.76233 5.23753 6.52042 8.05796M17.4776 9.03751C17.3753 10.1745 16.9286 11.212 16.2428 12.0442M6.52042 8.05796C3.98398 8.29987 2 10.4409 2 13.0464C2 15.4709 3.71776 17.4932 6 17.9575M6.52042 8.05796C6.67826 8.0429 6.83823 8.0352 7 8.0352C8.12582 8.0352 9.16474 8.40813 10.0005 9.03746" stroke="white" stroke-width="1.5" stroke-linecap="round" stroke-linejoin="round"/>
<path d="M12 13.0282V21.0316M12 13.0282C11.2998 13.0282 9.99153 15.0233 9.5 15.5292M12 13.0282C12.7002 13.0282 14.0085 15.0233 14.5 15.5292" stroke="white" stroke-width="1.5" stroke-linecap="round" stroke-linejoin="round"/>
</svg>
