<svg width="28" height="29" viewBox="0 0 28 29" fill="none" xmlns="http://www.w3.org/2000/svg">
<path d="M16.2835 11.2653L15.7286 9.6834L10.9593 3.32039L11.8093 3.10789L20.0139 10.2028L24.8423 8.82162C25.4089 8.67995 26.0582 8.64454 26.5422 8.64454C25.0312 5.37449 22.2451 2.68291 18.5855 1.38433C11.3489 -1.20101 3.38039 2.58846 0.806857 9.83687C0.00410259 12.0799 -0.172976 14.3937 0.15757 16.5894L11.7149 12.5757L16.2835 11.2653Z" fill="#072F54"/>
<path d="M27.0614 9.896C26.6364 10.1675 26.0108 10.5335 25.3969 10.7342L20.5567 12.1154L17.3339 22.4804L16.4958 22.7519L17.1805 14.8424L16.8027 13.2015L12.2695 14.5L0.275391 17.2979C1.23161 21.9019 4.48985 25.9275 9.24735 27.6156C16.4958 30.201 24.4525 26.4115 27.0378 19.1631C28.1475 16.0583 28.0767 12.8001 27.0614 9.896Z" fill="#072F54"/>
<path d="M16.7913 13.1906L17.1691 14.8316L16.4844 22.741L17.3226 22.4695L20.5454 12.1045L25.3855 10.7233C25.9994 10.5226 26.6251 10.1685 27.0501 9.88517C26.8966 9.46018 26.7313 9.047 26.5425 8.63381C26.0466 8.63381 25.4092 8.65742 24.8425 8.81089L20.0142 10.1921L11.8095 3.09717L10.9596 3.30966L15.7171 9.67267L16.2719 11.2546L11.7033 12.5649L0.145996 16.5787C0.181412 16.8148 0.228633 17.0627 0.275853 17.2988L12.2581 14.4774L16.7913 13.1906Z" fill="#FBC108"/>
</svg>
