<svg width="32" height="33" viewBox="0 0 32 33" fill="none" xmlns="http://www.w3.org/2000/svg">
<path d="M28.6448 0.5L1.67709 0.5C0.771463 0.5 0 1.27474 0 2.2179L0 5.28316C0 6.22631 0.771463 7.00105 1.67709 7.00105L28.6448 7.00105C29.5839 7.00105 30.3219 6.22631 30.3554 5.28316V2.25158C30.3554 1.27474 29.5839 0.5 28.6448 0.5ZM28.6448 17.5105L1.67709 17.5105C1.24105 17.5105 0.805005 17.679 0.503128 18.0158C0.167709 18.3526 0 18.7568 0 19.2284L0 22.2937C0 23.2368 0.771463 24.0116 1.67709 24.0116L28.6448 24.0116C29.5839 24.0116 30.3219 23.2705 30.3554 22.2937V19.2284C30.3219 18.2516 29.5839 17.5105 28.6448 17.5105ZM16.8716 25.9989L1.67709 25.9989C1.24105 25.9989 0.805005 26.1674 0.503128 26.5042C0.201251 26.841 0 27.2453 0 27.7168L0 30.7821C0 31.7253 0.771463 32.5 1.67709 32.5H16.838C17.7772 32.5 18.5151 31.7253 18.5151 30.8158V27.7505C18.5487 26.74 17.8107 25.9653 16.8716 25.9989ZM30.3554 8.98842L1.67709 8.98842C1.24105 8.98842 0.805005 9.15684 0.503128 9.49368C0.201251 9.83052 0 10.2347 0 10.7063L0 13.7716C0 14.7147 0.771463 15.4895 1.67709 15.4895L30.3219 15.4895C31.261 15.4895 31.9989 14.7147 31.9989 13.7716V10.7063C32.0325 9.76316 31.261 9.0221 30.3554 8.98842Z" fill="#00C3F7"/>
</svg>
