<svg width="16" height="16" viewBox="0 0 16 16" fill="none" xmlns="http://www.w3.org/2000/svg">
<path d="M12.6603 12.6667H12.6666H12.6603ZM12.6603 12.6667C12.2452 13.0783 11.4928 12.9758 10.9652 12.9758C10.3176 12.9758 10.0058 13.1025 9.54358 13.5647C9.15005 13.9583 8.62245 14.6667 7.99998 14.6667C7.37751 14.6667 6.84991 13.9583 6.45636 13.5647C5.99417 13.1025 5.68231 12.9758 5.03469 12.9758C4.5071 12.9758 3.75477 13.0783 3.33964 12.6667C2.92119 12.2517 3.02417 11.4963 3.02417 10.9653C3.02417 10.2943 2.87742 9.98573 2.39957 9.50787C1.68874 8.79707 1.33333 8.4416 1.33331 8C1.33332 7.55834 1.68873 7.20294 2.39955 6.49212C2.82611 6.06555 3.02417 5.64286 3.02417 5.03471C3.02417 4.5071 2.92164 3.75476 3.33331 3.33963C3.74827 2.92119 4.50371 3.02418 5.0347 3.02418C5.64283 3.02418 6.06553 2.82614 6.49208 2.39958C7.20291 1.68875 7.55831 1.33334 7.99998 1.33334C8.44165 1.33334 8.79705 1.68875 9.50785 2.39958C9.93431 2.82605 10.357 3.02418 10.9652 3.02418C11.4928 3.02418 12.2452 2.92165 12.6604 3.33334C13.0788 3.74829 12.9758 4.50373 12.9758 5.03471C12.9758 5.70572 13.1226 6.01425 13.6004 6.49212C14.3112 7.20294 14.6666 7.55834 14.6666 8C14.6666 8.4416 14.3112 8.79707 13.6004 9.50787C13.1225 9.98573 12.9758 10.2943 12.9758 10.9653C12.9758 11.4963 13.0788 12.2517 12.6603 12.6667Z" fill="#808080"/>
<path d="M12.6603 12.6667H12.6666M12.6603 12.6667C12.2452 13.0783 11.4928 12.9758 10.9652 12.9758C10.3176 12.9758 10.0058 13.1025 9.54358 13.5647C9.15005 13.9583 8.62245 14.6667 7.99998 14.6667C7.37751 14.6667 6.84991 13.9583 6.45636 13.5647C5.99417 13.1025 5.68231 12.9758 5.03469 12.9758C4.5071 12.9758 3.75477 13.0783 3.33964 12.6667C2.92119 12.2517 3.02417 11.4963 3.02417 10.9653C3.02417 10.2943 2.87742 9.98574 2.39957 9.50787C1.68874 8.79707 1.33333 8.4416 1.33331 8C1.33332 7.55834 1.68873 7.20294 2.39955 6.49212C2.82611 6.06555 3.02417 5.64286 3.02417 5.03471C3.02417 4.5071 2.92164 3.75476 3.33331 3.33963C3.74827 2.92119 4.50371 3.02418 5.0347 3.02418C5.64283 3.02418 6.06553 2.82614 6.49208 2.39958C7.20291 1.68875 7.55831 1.33334 7.99998 1.33334C8.44165 1.33334 8.79705 1.68875 9.50785 2.39958C9.93431 2.82605 10.357 3.02418 10.9652 3.02418C11.4928 3.02418 12.2452 2.92165 12.6604 3.33334C13.0788 3.74829 12.9758 4.50373 12.9758 5.03471C12.9758 5.70572 13.1226 6.01425 13.6004 6.49212C14.3112 7.20294 14.6666 7.55834 14.6666 8C14.6666 8.4416 14.3112 8.79707 13.6004 9.50787C13.1225 9.98574 12.9758 10.2943 12.9758 10.9653C12.9758 11.4963 13.0788 12.2517 12.6603 12.6667Z" stroke="#808080" stroke-width="1.5"/>
<path d="M6 8.59527L7.2 9.66667L10 6.33334" stroke="white" stroke-width="1.5" stroke-linecap="round" stroke-linejoin="round"/>
</svg>
