<svg width="32" height="32" viewBox="0 0 32 32" fill="none" xmlns="http://www.w3.org/2000/svg">
<rect width="32" height="32" rx="8" fill="#E36B37"/>
<path d="M11 13.5C11.8284 13.5 12.5 12.8284 12.5 12C12.5 11.1716 11.8284 10.5 11 10.5C10.1716 10.5 9.5 11.1716 9.5 12C9.5 12.8284 10.1716 13.5 11 13.5Z" stroke="white" stroke-width="1.5" stroke-linecap="round" stroke-linejoin="round"/>
<path d="M24.9977 15C25 15.4701 25 15.9693 25 16.5C25 20.9783 25 23.2175 23.6088 24.6088C22.2175 26 19.9783 26 15.5 26C11.0217 26 8.78249 26 7.39124 24.6088C6 23.2175 6 20.9783 6 16.5C6 12.0217 6 9.78249 7.39124 8.39124C8.78249 7 11.0217 7 15.5 7C16.0307 7 16.5299 7 17 7.00231" stroke="white" stroke-width="1.5" stroke-linecap="round"/>
<path d="M22.5 6L22.7579 6.69703C23.0961 7.61102 23.2652 8.06802 23.5986 8.40139C23.932 8.73477 24.389 8.90387 25.303 9.24208L26 9.5L25.303 9.75792C24.389 10.0961 23.932 10.2652 23.5986 10.5986C23.2652 10.932 23.0961 11.389 22.7579 12.303L22.5 13L22.2421 12.303C21.9039 11.389 21.7348 10.932 21.4014 10.5986C21.068 10.2652 20.611 10.0961 19.697 9.75792L19 9.5L19.697 9.24208C20.611 8.90387 21.068 8.73477 21.4014 8.40139C21.7348 8.06802 21.9039 7.61102 22.2421 6.69703L22.5 6Z" stroke="white" stroke-width="1.5" stroke-linejoin="round"/>
<path d="M8.5 25.5C12.8725 20.275 17.7741 13.3841 24.9975 18.0424" stroke="white" stroke-width="1.5"/>
</svg>
