<svg width="16" height="16" viewBox="0 0 16 16" fill="none" xmlns="http://www.w3.org/2000/svg">
<path d="M12.6603 12.6667H12.6666H12.6603ZM12.6603 12.6667C12.2451 13.0783 11.4928 12.9758 10.9652 12.9758C10.3176 12.9758 10.0057 13.1025 9.54352 13.5647C9.14998 13.9583 8.62239 14.6667 7.99992 14.6667C7.37745 14.6667 6.84985 13.9583 6.4563 13.5647C5.99411 13.1025 5.68225 12.9758 5.03463 12.9758C4.50704 12.9758 3.75471 13.0783 3.33958 12.6667C2.92113 12.2517 3.02411 11.4963 3.02411 10.9653C3.02411 10.2943 2.87736 9.98573 2.39951 9.50787C1.68868 8.79707 1.33327 8.4416 1.33325 8C1.33326 7.55834 1.68867 7.20294 2.39949 6.49212C2.82605 6.06555 3.02411 5.64286 3.02411 5.03471C3.02411 4.5071 2.92158 3.75476 3.33325 3.33963C3.74821 2.92119 4.50365 3.02418 5.03464 3.02418C5.64277 3.02418 6.06546 2.82614 6.49202 2.39958C7.20285 1.68875 7.55825 1.33334 7.99992 1.33334C8.44159 1.33334 8.79698 1.68875 9.50778 2.39958C9.93425 2.82605 10.3569 3.02418 10.9652 3.02418C11.4928 3.02418 12.2452 2.92165 12.6603 3.33334C13.0787 3.74829 12.9757 4.50373 12.9757 5.03471C12.9757 5.70572 13.1225 6.01425 13.6003 6.49212C14.3112 7.20294 14.6666 7.55834 14.6666 8C14.6666 8.4416 14.3112 8.79707 13.6003 9.50787C13.1225 9.98573 12.9757 10.2943 12.9757 10.9653C12.9757 11.4963 13.0787 12.2517 12.6603 12.6667Z" fill="#E36B37"/>
<path d="M12.6603 12.6667H12.6666M12.6603 12.6667C12.2451 13.0783 11.4928 12.9758 10.9652 12.9758C10.3176 12.9758 10.0057 13.1025 9.54352 13.5647C9.14998 13.9583 8.62238 14.6667 7.99992 14.6667C7.37745 14.6667 6.84985 13.9583 6.4563 13.5647C5.99411 13.1025 5.68225 12.9758 5.03463 12.9758C4.50704 12.9758 3.75471 13.0783 3.33958 12.6667C2.92113 12.2517 3.02411 11.4963 3.02411 10.9653C3.02411 10.2943 2.87736 9.98574 2.39951 9.50787C1.68868 8.79707 1.33327 8.4416 1.33325 8C1.33326 7.55834 1.68867 7.20294 2.39949 6.49212C2.82605 6.06555 3.02411 5.64286 3.02411 5.03471C3.02411 4.5071 2.92158 3.75476 3.33325 3.33963C3.74821 2.92119 4.50365 3.02418 5.03464 3.02418C5.64277 3.02418 6.06546 2.82614 6.49202 2.39958C7.20285 1.68875 7.55825 1.33334 7.99992 1.33334C8.44158 1.33334 8.79698 1.68875 9.50778 2.39958C9.93425 2.82605 10.3569 3.02418 10.9652 3.02418C11.4928 3.02418 12.2452 2.92165 12.6603 3.33334C13.0787 3.74829 12.9757 4.50373 12.9757 5.03471C12.9757 5.70572 13.1225 6.01425 13.6003 6.49212C14.3112 7.20294 14.6666 7.55834 14.6666 8C14.6666 8.4416 14.3112 8.79707 13.6003 9.50787C13.1225 9.98574 12.9757 10.2943 12.9757 10.9653C12.9757 11.4963 13.0787 12.2517 12.6603 12.6667Z" stroke="#E36B37" stroke-width="1.5"/>
<path d="M6 8.59527L7.2 9.66667L10 6.33334" stroke="white" stroke-width="1.5" stroke-linecap="round" stroke-linejoin="round"/>
</svg>
