<svg width="32" height="32" viewBox="0 0 32 32" fill="none" xmlns="http://www.w3.org/2000/svg">
<rect width="32" height="32" rx="8" fill="#0A2EE6"/>
<path d="M10.9863 7.70018C13.7833 10.7947 18.3961 4.11589 21.1255 6.53972C22.696 7.93438 22.1995 11.0137 20.1607 13.02" stroke="white" stroke-width="1.5" stroke-linecap="round"/>
<path d="M17.7897 17.9839C17.8075 17.6494 17.9014 17.0373 17.3927 16.5722M17.3927 16.5722C17.2353 16.4282 17.0201 16.2983 16.7272 16.1951C15.6788 15.8256 14.391 17.0623 15.302 18.1944C15.7917 18.803 16.1692 18.9901 16.1337 19.6812C16.1087 20.1673 15.6311 20.6752 15.0018 20.8686C14.4551 21.0367 13.852 20.8142 13.4705 20.3879C13.0048 19.8675 13.0518 19.3769 13.0478 19.163M17.3927 16.5722L17.9668 15.998M13.512 20.4528L12.9668 20.998" stroke="white" stroke-width="1.5" stroke-linecap="round" stroke-linejoin="round"/>
<path d="M22.2726 10.633C23.1981 10.8107 23.4057 11.3952 23.682 13.017C23.9309 14.4776 24.0007 16.2303 24.0007 16.9765C23.9753 17.2514 23.8625 17.508 23.682 17.7174C21.7469 19.7454 17.9064 23.5752 15.9681 25.4777C15.2074 26.1569 14.0597 26.1715 13.2524 25.5481C11.5993 24.0612 10.0109 22.3803 8.45501 20.8624C7.82993 20.0573 7.84458 18.9129 8.52567 18.1543C10.5762 16.0271 14.2867 12.386 16.3813 10.3744C16.5913 10.1945 16.8486 10.0819 17.1243 10.0566C17.5943 10.0565 18.4005 10.1197 19.1859 10.1652" stroke="white" stroke-width="1.5" stroke-linecap="round"/>
</svg>
