<svg width="560" height="161" viewBox="0 0 560 161" fill="none" xmlns="http://www.w3.org/2000/svg">
<g clip-path="url(#clip0_1_4049)">
<rect width="560" height="161" rx="16" fill="#34C759"/>
<rect x="315" y="127" width="25.438" height="1.61" transform="rotate(99 315 127)" fill="#480CA7"/>
<rect x="149" y="24" width="24.438" height="2.61" transform="rotate(148 149 24)" fill="#F54721" fill-opacity="0.6"/>
<rect x="427" y="85" width="4.438" height="2.61" transform="rotate(29 427 85)" fill="#FFED36" fill-opacity="0.6"/>
<rect x="499" y="24" width="23.438" height="1.61" transform="rotate(87 499 24)" fill="#BA3E03" fill-opacity="0.6"/>
<rect x="523" y="82" width="14.438" height="2.61" transform="rotate(123 523 82)" fill="#480CA7" fill-opacity="0.45"/>
<rect x="430" y="119" width="5.438" height="3.61" transform="rotate(166 430 119)" fill="#F62584" fill-opacity="0.6"/>
<rect x="350" y="55" width="17.438" height="2.61" transform="rotate(95 350 55)" fill="#9DED1A" fill-opacity="0.65"/>
<rect x="117" y="55" width="20.438" height="2.61" transform="rotate(-71 117 55)" fill="#DCBCFA" fill-opacity="0.65"/>
<rect x="290" y="96" width="24.438" height="2.61" transform="rotate(-13 290 96)" fill="#F54721" fill-opacity="0.45"/>
<rect x="405" y="20" width="12.438" height="1.61" transform="rotate(-109 405 20)" fill="#03A3F5" fill-opacity="0.45"/>
<rect x="152" y="76" width="24.438" height="2.61" transform="rotate(31 152 76)" fill="#9DED1A" fill-opacity="0.65"/>
<rect x="75" y="74" width="12.438" height="2.61" transform="rotate(-159 75 74)" fill="#BA3E03" fill-opacity="0.9"/>
<rect x="241" y="120" width="22.438" height="1.61" transform="rotate(70 241 120)" fill="#BA3E03" fill-opacity="0.75"/>
<rect x="243" y="53" width="15.438" height="1.61" transform="rotate(-144 243 53)" fill="#9AF5FC" fill-opacity="0.75"/>
<rect x="141" y="21" width="8.438" height="1.61" transform="rotate(-100 141 21)" fill="#BA3E03" fill-opacity="0.9"/>
<rect x="499" y="136" width="21.438" height="1.61" transform="rotate(28 499 136)" fill="#9DED1A" fill-opacity="0.45"/>
<rect x="452" y="132" width="6.438" height="1.61" transform="rotate(82 452 132)" fill="#755FFE" fill-opacity="0.9"/>
<circle cx="209.585" cy="153.585" r="3.585" fill="#9AF5FC" fill-opacity="0.9"/>
<circle cx="342.585" cy="104.585" r="2.585" fill="#F54721" fill-opacity="0.85"/>
<circle cx="196.585" cy="29.585" r="4.585" fill="#BA3E03" fill-opacity="0.85"/>
<circle cx="222.585" cy="32.585" r="1.585" fill="#480CA7" fill-opacity="0.85"/>
<circle cx="234.085" cy="100.085" r="4.085" fill="#DCBCFA" fill-opacity="0.35"/>
<circle cx="77.585" cy="69.585" r="2.585" fill="#F62584" fill-opacity="0.6"/>
<circle cx="547.585" cy="102.585" r="1.585" fill="#755FFE" fill-opacity="0.75"/>
<circle cx="220.585" cy="127.585" r="4.585" fill="#03A3F5"/>
<circle cx="321.085" cy="24.085" r="4.085" fill="#FC9E1C" fill-opacity="0.35"/>
<circle cx="484.085" cy="43.085" r="3.085" fill="#DCBCFA" fill-opacity="0.9"/>
<circle cx="388.085" cy="128.085" r="4.085" fill="#C9FCBE" fill-opacity="0.65"/>
<circle cx="261.585" cy="63.585" r="3.585" fill="#9AF5FC" fill-opacity="0.35"/>
<circle cx="199.085" cy="123.085" r="3.085" fill="#755FFE" fill-opacity="0.65"/>
<circle cx="248.585" cy="55.585" r="1.585" fill="#03A3F5" fill-opacity="0.35"/>
<circle cx="217.085" cy="114.085" r="2.085" fill="#C9FCBE" fill-opacity="0.6"/>
<circle cx="176.085" cy="161.085" r="4.085" fill="#480CA7" fill-opacity="0.65"/>
<circle cx="168.585" cy="158.585" r="2.585" fill="#FFED36" fill-opacity="0.75"/>
<path d="M179.015 107.584L175.371 111.927L169.787 110.943L167.848 105.615L171.492 101.271L177.076 102.256L179.015 107.584Z" fill="#FC9E1C" fill-opacity="0.75"/>
<path d="M369.439 145.176L372.098 143.449L374.922 144.888L375.088 148.054L372.43 149.78L369.605 148.341L369.439 145.176Z" fill="#BA3E03" fill-opacity="0.85"/>
<path d="M281.136 8.35506L286.773 10.8646L287.418 17.0008L282.426 20.6275L276.79 18.1179L276.145 11.9817L281.136 8.35506Z" fill="#9AF5FC" fill-opacity="0.65"/>
<path d="M429.808 57.335L431.474 54.065L435.139 53.873L437.138 56.9509L435.472 60.2209L431.807 60.413L429.808 57.335Z" fill="#FC9E1C" fill-opacity="0.9"/>
<path d="M245.397 61.7003L241.927 60.5054L241.227 56.9029L243.997 54.4951L247.467 55.69L248.167 59.2925L245.397 61.7003Z" fill="#4BC8EF" fill-opacity="0.85"/>
<path d="M496.422 152.658L500.289 156.805L498.631 162.227L493.107 163.502L489.24 159.355L490.898 153.933L496.422 152.658Z" fill="#F54721" fill-opacity="0.9"/>
<path d="M194.768 10.0264L192.106 5.22479L195.85 1.20972L200.826 3.52985L200.157 8.97885L194.768 10.0264Z" fill="#9DED1A" fill-opacity="0.75"/>
<path d="M74.4309 28.6352L66.9852 31.7957L67.971 23.7673L74.4309 28.6352Z" fill="#C9FCBE" fill-opacity="0.65"/>
<path d="M147.918 66.4342L152.402 59.7865L159.05 64.2704L154.566 70.9181L147.918 66.4342Z" fill="#755FFE" fill-opacity="0.65"/>
<path d="M527.174 145.424L531.823 141.089L533.253 147.283L527.174 145.424Z" fill="#480CA7" fill-opacity="0.75"/>
<path d="M345.901 131.21L344.882 126.415L349.127 123.964L352.77 127.244L350.776 131.722L345.901 131.21Z" fill="#BA3E03" fill-opacity="0.6"/>
<path d="M494.125 73.5295L500.72 73.1839L501.066 79.7792L494.47 80.1248L494.125 73.5295Z" fill="#03A3F5" fill-opacity="0.9"/>
<path d="M333.264 53.0845L331.444 59.433L325.095 57.6126L326.916 51.2641L333.264 53.0845Z" fill="#FFED36"/>
<path d="M305.559 27.4431L299.548 22.0307L307.24 19.5312L305.559 27.4431Z" fill="#03A3F5" fill-opacity="0.45"/>
<path d="M463.428 113.962L468.588 115.84L464.382 119.37L463.428 113.962Z" fill="#F54721" fill-opacity="0.35"/>
<path d="M277.432 31.5936L276.545 25.9934L280.951 22.4251L286.245 24.4571L287.132 30.0573L282.725 33.6255L277.432 31.5936Z" fill="#FF21FB" fill-opacity="0.35"/>
<path d="M179.415 65.1285L169.251 61.8261L177.193 54.6753L179.415 65.1285Z" fill="#FFED36" fill-opacity="0.6"/>
<path d="M131.02 11.241L137.799 8.50206L140.538 15.2811L133.759 18.0201L131.02 11.241Z" fill="#F54721" fill-opacity="0.6"/>
<path d="M357.611 125.085L356.981 128.048L359.605 129.563L356.592 129.88L355.962 132.843L354.73 130.076L351.717 130.392L353.968 128.365L352.736 125.597L355.36 127.112L357.611 125.085Z" fill="#FFED36" fill-opacity="0.6"/>
<path d="M333.625 121.597L335.64 120.027L334.136 117.963L336.503 118.923L337.539 116.588L337.891 119.118L340.431 118.848L338.416 120.418L339.92 122.482L337.553 121.522L336.517 123.857L336.165 121.327L333.625 121.597Z" fill="#03A3F5"/>
<path d="M330.33 53L329.506 50.4641H326.84L328.997 48.8968L328.173 46.3609L330.33 47.9282L332.487 46.3609L331.663 48.8968L333.82 50.4641H331.154L330.33 53Z" fill="#F54721" fill-opacity="0.6"/>
<path d="M104.191 119.304L104.507 116.291L101.739 115.059L104.703 114.429L105.02 111.416L106.534 114.039L109.498 113.409L107.471 115.661L108.986 118.285L106.218 117.052L104.191 119.304Z" fill="#755FFE" fill-opacity="0.6"/>
<path d="M434.012 44.5278L431.801 46.0189L432.536 48.582L430.435 46.9404L428.224 48.4314L429.136 45.9258L427.035 44.2842L429.7 44.3773L430.612 41.8717L431.347 44.4348L434.012 44.5278Z" fill="#03A3F5" fill-opacity="0.75"/>
<path d="M379.502 21.6283L381.989 25.2735L386.375 25.7582L382.73 28.2453L382.245 32.6315L379.758 28.9863L375.372 28.5016L379.017 26.0144L379.502 21.6283Z" fill="#755FFE" fill-opacity="0.6"/>
<path d="M430.798 135.72L431.879 133.686L430.279 132.029L432.547 132.429L433.629 130.396L433.949 132.677L436.217 133.076L434.147 134.086L434.468 136.367L432.868 134.71L430.798 135.72Z" fill="#9AF5FC" fill-opacity="0.6"/>
<path d="M204.063 157.062L205.845 159.774L209.064 160.187L206.352 161.969L205.939 165.188L204.157 162.476L200.938 162.063L203.65 160.281L204.063 157.062Z" fill="#DCBCFA" fill-opacity="0.65"/>
<path d="M383.411 48.6795L379.916 51.9732L380.142 56.7698L376.848 53.2754L372.052 53.5011L375.546 50.2075L375.32 45.4108L378.614 48.9052L383.411 48.6795Z" fill="#4BC8EF" fill-opacity="0.45"/>
<path d="M184.907 78.7957L183.22 76.0228L180.018 75.498L182.79 73.8116L183.315 70.6089L185.002 73.3818L188.204 73.9066L185.431 75.593L184.907 78.7957Z" fill="#C9FCBE" fill-opacity="0.35"/>
<path d="M212.111 49.8686L212.952 45.0962L208.673 42.8211L213.472 42.1467L214.314 37.3743L216.438 41.7299L221.237 41.0554L217.751 44.4218L219.875 48.7774L215.597 46.5023L212.111 49.8686Z" fill="#480CA7" fill-opacity="0.6"/>
<path d="M347.174 135.576L344.624 135.706L344.671 138.26L343.283 136.116L341.096 137.434L342.258 135.16L340.023 133.925L342.573 133.794L342.525 131.241L343.914 133.384L346.101 132.066L344.939 134.341L347.174 135.576Z" fill="#9DED1A" fill-opacity="0.75"/>
<path d="M321.645 148.419L323.303 152.754L327.69 151.238L324.764 154.841L328.271 157.882L323.687 157.15L322.807 161.708L321.149 157.372L316.762 158.889L319.688 155.285L316.181 152.244L320.765 152.976L321.645 148.419Z" fill="#9DED1A" fill-opacity="0.6"/>
<path d="M361.779 12.7623L361.514 15.9969L363.796 18.3039L360.562 18.0384L358.255 20.3209L358.52 17.0864L356.238 14.7793L359.472 15.0449L361.779 12.7623Z" fill="#BA3E03" fill-opacity="0.75"/>
<path d="M560.647 36.5073L560.831 33.6569L558.787 31.6618L561.638 31.8459L563.633 29.8019L563.449 32.6522L565.493 34.6473L562.642 34.4633L560.647 36.5073Z" fill="#9DED1A" fill-opacity="0.65"/>
<path d="M433.037 158.837L434.972 162.057L438.632 161.212L436.168 164.047L438.102 167.266L434.645 165.799L432.18 168.634L432.508 164.892L429.05 163.424L432.71 162.579L433.037 158.837Z" fill="#F54721" fill-opacity="0.65"/>
<path d="M220.31 107.148L222.659 108.149L223.736 105.833L224.044 108.368L226.588 108.142L224.546 109.677L226.014 111.767L223.664 110.766L222.588 113.082L222.28 110.547L219.735 110.773L221.777 109.238L220.31 107.148Z" fill="#9AF5FC" fill-opacity="0.9"/>
<path d="M438.271 76.1629L434.867 77.33L435.923 80.7694L433.211 78.4055L430.761 81.04L431.451 77.509L427.945 76.7041L431.348 75.537L430.292 72.0976L433.004 74.4614L435.455 71.827L434.764 75.358L438.271 76.1629Z" fill="#480CA7"/>
<path d="M416.834 110.785L415.325 106.226L410.883 104.403L415.442 102.895L417.264 98.4522L418.773 103.011L423.215 104.834L418.656 106.342L416.834 110.785Z" fill="#9AF5FC" fill-opacity="0.6"/>
<g clip-path="url(#clip1_1_4049)">
<path fill-rule="evenodd" clip-rule="evenodd" d="M34.0176 74L-4.48242 165L86.5176 126.5" fill="#02A8A8"/>
<path d="M34.0176 74L-4.48242 165L86.5176 126.5" stroke="#473051" stroke-width="3" stroke-linecap="round" stroke-linejoin="round"/>
<path fill-rule="evenodd" clip-rule="evenodd" d="M54.8215 105.696L55.6819 106.551C69.724 120.412 83.1856 129.293 85.998 126.48C88.8103 123.668 79.9296 110.206 66.0685 96.1643L65.2136 95.3039C50.8651 80.9554 36.9069 71.6499 34.0372 74.5196C31.1675 77.3893 40.4729 91.3475 54.8215 105.696Z" fill="#FDE5DB" stroke="#473051" stroke-width="3" stroke-linecap="round" stroke-linejoin="round"/>
<path d="M10.5176 128C16.8139 137.96 17.1637 147.626 11.567 157" stroke="#473051" stroke-width="3" stroke-linecap="round" stroke-linejoin="round"/>
<path d="M20.5176 107C34.4306 124.885 36.2454 139.885 25.9618 152" stroke="#473051" stroke-width="3" stroke-linecap="round" stroke-linejoin="round"/>
<path d="M40.313 90C52.1161 112.8 51.1842 131.8 37.5176 147" stroke="#473051" stroke-width="3" stroke-linecap="round" stroke-linejoin="round"/>
<path d="M66.5176 118C66.5176 126.116 63.8509 132.783 58.5176 138" stroke="#473051" stroke-width="3" stroke-linecap="round" stroke-linejoin="round"/>
<path d="M25.5176 93C30.9176 99.1111 33.9176 104.111 34.5176 108" stroke="#473051" stroke-width="3" stroke-linecap="round" stroke-linejoin="round"/>
<path d="M36.664 114C37.1354 115.714 37.3711 117.714 37.3711 120" stroke="#473051" stroke-width="3" stroke-linecap="round" stroke-linejoin="round"/>
<path d="M72.5176 113C77.5945 107.5 84.9278 103.833 94.5176 102" stroke="#473051" stroke-width="3" stroke-linecap="round" stroke-linejoin="round"/>
<path d="M65.5176 51C64.9509 65.3939 59.2842 78.0606 48.5176 89" stroke="#473051" stroke-width="3" stroke-linecap="round" stroke-linejoin="round"/>
<path fill-rule="evenodd" clip-rule="evenodd" d="M85.2498 61.2678C86.2261 62.2441 87.809 62.2441 88.7853 61.2678C89.7617 60.2915 89.7617 58.7085 88.7853 57.7322C87.809 56.7559 86.2261 56.7559 85.2498 57.7322C84.2735 58.7085 84.2735 60.2915 85.2498 61.2678Z" fill="#473051"/>
<path fill-rule="evenodd" clip-rule="evenodd" d="M96.982 42.5355C98.9347 44.4882 102.1 44.4882 104.053 42.5355C106.006 40.5829 106.006 37.4171 104.053 35.4645C102.1 33.5118 98.9347 33.5118 96.982 35.4645C95.0294 37.4171 95.0294 40.5829 96.982 42.5355Z" stroke="#F45062" stroke-width="3" stroke-linecap="round" stroke-linejoin="round"/>
<path fill-rule="evenodd" clip-rule="evenodd" d="M36.982 54.5355C38.9347 56.4882 42.1005 56.4882 44.0531 54.5355C46.0057 52.5829 46.0057 49.4171 44.0531 47.4645C42.1005 45.5118 38.9347 45.5118 36.982 47.4645C35.0294 49.4171 35.0294 52.5829 36.982 54.5355Z" stroke="#02A8A8" stroke-width="3" stroke-linecap="round" stroke-linejoin="round"/>
<path d="M94.5176 76C103.781 66.6667 114.781 62 127.518 62" stroke="#473051" stroke-width="3" stroke-linecap="round" stroke-linejoin="round"/>
<path d="M72.5176 84C74.2954 78.8 76.962 74.4667 80.5176 71" stroke="#473051" stroke-width="3" stroke-linecap="round" stroke-linejoin="round"/>
</g>
</g>
<defs>
<clipPath id="clip0_1_4049">
<rect width="560" height="161" rx="16" fill="white"/>
</clipPath>
<clipPath id="clip1_1_4049">
<rect width="113.06" height="128" fill="white" transform="translate(-11.4824 44)"/>
</clipPath>
</defs>
</svg>
