<svg width="56" height="19" viewBox="0 0 56 19" fill="none" xmlns="http://www.w3.org/2000/svg">
<g clip-path="url(#clip0_23_2795)">
<path d="M18.5068 4.61633H21.47L23.7198 10.7072H23.7746L25.9147 4.61633H28.7132L25.2013 13.6155H22.2931" fill="#F48F00"/>
<path d="M7.69686 6.86611H4.95321V9.88412C4.95321 10.378 5.00809 11.0364 5.50194 11.3657C5.9958 11.5852 6.54453 11.6401 7.09326 11.5303C7.31275 11.5303 7.53224 11.4206 7.69686 11.3108V13.6155C7.36762 13.7252 6.98351 13.7801 6.65428 13.835C4.67885 14.0545 1.99007 13.6704 1.99007 11.2011V6.92098H0.0146484V4.61631H1.9352V1.98241H4.95321V4.61631H7.69686V6.86611ZM15.4339 4.61631H18.1776V13.6155H15.4339V4.61631ZM15.3242 2.25678C15.2693 1.48856 15.9278 0.775208 16.7509 0.775208C17.574 0.775208 18.2325 1.37881 18.2325 2.2019V2.25678C18.2325 3.07987 17.5191 3.73835 16.7509 3.68347C15.9827 3.68347 15.3242 3.07987 15.3242 2.25678Z" fill="#007FAF"/>
<path d="M49.4554 9.11587C49.4554 10.3231 50.1687 11.3657 51.4308 11.3657C52.6929 11.3657 53.4062 10.3231 53.4062 9.11587C53.4062 7.90866 52.6929 6.86608 51.4308 6.86608C50.1687 6.86608 49.4554 7.90866 49.4554 9.11587ZM46.9861 9.11587C46.8763 6.64658 48.7969 4.50654 51.2662 4.39679C52.7477 4.34192 54.1196 5.0004 55.0524 6.15273C56.1499 7.74404 56.3145 9.77434 55.4365 11.5303C54.2293 13.7252 51.4857 14.4934 49.2908 13.2862C47.8092 12.4631 46.8763 10.8718 46.9861 9.11587ZM44.0229 4.61629V5.82349H43.9681C43.9132 5.71374 43.8035 5.604 43.6937 5.49425C41.8829 3.95781 38.8649 4.28705 37.7126 6.42709C37.1638 7.57943 36.9992 8.89638 37.2187 10.1585C37.3833 11.3108 37.8223 12.518 38.81 13.1765C39.9623 13.8898 41.3342 14.0544 42.5962 13.5606C43.0352 13.396 43.4193 13.0667 43.7486 12.6826H43.8035V13.5606C43.8583 14.1642 43.6388 14.7129 43.2547 15.1519C42.4865 15.975 40.9501 15.9201 39.9075 15.6458C39.3587 15.4811 38.81 15.2616 38.3162 14.9324L36.9443 16.9078C37.6028 17.4017 38.3162 17.7309 39.0844 17.9504C41.0598 18.4443 43.7486 18.4443 45.285 16.9078C46.163 16.0299 46.4922 14.7129 46.4922 13.0118V4.61629H44.0229ZM43.3645 10.8169C42.5962 11.64 41.3342 11.6949 40.5111 10.9267L40.4013 10.8169C39.688 9.82922 39.688 8.51227 40.4013 7.52455C41.1696 6.70146 42.4316 6.64659 43.2547 7.41481L43.3645 7.52455C44.0778 8.45739 44.0778 9.82922 43.3645 10.8169C43.6937 10.3779 42.9804 11.201 43.3645 10.8169Z" fill="#C94A38"/>
<path d="M8.41016 4.61632H11.2087V6.09789H11.2635C11.483 5.60403 11.8672 5.16505 12.3061 4.83581C13.0744 4.4517 13.9523 4.28708 14.7754 4.50657V7.03073C14.2267 6.86611 13.0195 6.64662 12.1964 7.14048C11.6477 7.46971 11.2635 7.85382 11.2635 9.82925V13.5606H8.46503L8.41016 4.61632Z" fill="#007FAF"/>
<path d="M31.2924 10.0487C30.7436 10.378 30.3595 11.0365 30.8534 11.5852C31.3473 12.079 32.2252 12.0242 32.8288 11.8047C33.5422 11.6401 34.036 10.9816 34.036 10.2682V9.7195C34.0909 9.7195 32.0057 9.60975 31.2924 10.0487ZM34.0909 12.518C33.7617 12.957 33.3227 13.3411 32.8288 13.5606C30.8534 14.3837 28.0549 13.5606 28 11.0913C28 8.5123 30.7985 8.01844 32.8288 7.96357H34.0909C34.0909 7.52458 33.9263 7.0856 33.5422 6.81123C33.1917 6.54542 32.7711 6.38816 32.3322 6.3589C31.8933 6.32964 31.4555 6.42967 31.0729 6.64662C30.6888 6.86611 30.3595 7.0856 30.0852 7.41484L28.5487 5.87839C29.0426 5.38454 29.7011 5.0553 30.3595 4.78093C31.6216 4.34195 32.9386 4.28708 34.2006 4.61632C35.353 4.94555 36.1761 5.87839 36.3956 7.03073C36.5053 7.6892 36.5602 8.34768 36.5602 9.00615V13.5606H34.036L34.0909 12.518Z" fill="#F48F00"/>
</g>
<defs>
<clipPath id="clip0_23_2795">
<rect width="56" height="17.4496" fill="white" transform="translate(0 0.775208)"/>
</clipPath>
</defs>
</svg>
