<svg width="16" height="17" viewBox="0 0 16 17" fill="none" xmlns="http://www.w3.org/2000/svg">
<path d="M6.34912 10.1245L9.62449 6.84912" stroke="white" stroke-width="1.5" stroke-linecap="round"/>
<path d="M14.0099 11.1725H12.6741M10.6704 14.5128V13.1766" stroke="white" stroke-width="1.5" stroke-linecap="round" stroke-linejoin="round"/>
<path d="M1.98828 5.82805H3.3241M5.32783 2.48779V3.82389" stroke="white" stroke-width="1.5" stroke-linecap="round" stroke-linejoin="round"/>
<path d="M10.0709 8.87909C10.8309 9.37222 11.61 9.24063 12.1796 8.67103L14.1758 6.67435C14.8279 6.02213 14.8279 4.96466 14.1758 4.31243L12.1856 2.32181C11.5335 1.66958 10.4763 1.66958 9.82417 2.32181L7.82797 4.31849C7.36011 4.78641 7.08997 5.67577 7.64324 6.44002" stroke="white" stroke-width="1.5" stroke-linecap="round" stroke-linejoin="round"/>
<path d="M8.379 10.5723C8.872 11.3325 8.7404 12.1118 8.17093 12.6814L6.17467 14.6781C5.52258 15.3304 4.46534 15.3304 3.81325 14.6781L1.82305 12.6875C1.17096 12.0353 1.17096 10.9778 1.82305 10.3256L3.8193 8.3289C4.28713 7.86097 5.17629 7.59077 5.94039 8.14417" stroke="white" stroke-width="1.5" stroke-linecap="round" stroke-linejoin="round"/>
</svg>
